<?xml version="1.0" encoding="UTF-8"?>
<svg id="Layer_2" xmlns="http://www.w3.org/2000/svg" viewBox="0 0 458.7 83.15">
  <defs>
    <style>
      .cls-1 {
        fill: #fff;
      }

      .cls-2 {
        stroke-width: 12px;
      }

      .cls-2, .cls-3 {
        fill: none;
        stroke: #fff;
        stroke-linecap: round;
        stroke-linejoin: round;
      }

      .cls-3 {
        stroke-width: 13px;
      }
    </style>
  </defs>
  <g id="Layer_13_copy">
    <g>
      <line class="cls-3" x1="6.5" y1="60.1" x2="6.5" y2="40.71"/>
      <line class="cls-3" x1="6.5" y1="75.94" x2="6.5" y2="75.94"/>
      <path class="cls-2" d="M6.5,22.26V7.65S58.73-5.35,59.14,41.68c.26,30.49-19.76,35.75-34.34,35.46"/>
      <g>
        <path class="cls-1" d="M80.56,74.57V8.58c0-4.72,2.67-7.53,7.03-7.53h38.31c3.87,0,6.43,2.36,6.43,6.12s-2.56,6.12-6.43,6.12h-31.28v21.91h29.64c3.6,0,6.05,2.19,6.05,5.73s-2.4,5.79-6.05,5.79h-29.64v23.14h31.28c3.87,0,6.43,2.36,6.43,6.12s-2.56,6.12-6.43,6.12h-38.31c-4.36,0-7.03-2.81-7.03-7.53Z"/>
        <path class="cls-1" d="M143.67,74.57V8.58c0-4.72,2.67-7.53,7.03-7.53h25.61c14.28,0,23.48,7.92,23.48,20.22,0,8.71-6.27,16.29-14.33,17.64v.45c10.68,1.07,18.15,8.99,18.15,19.72,0,14.27-10.19,23.03-26.97,23.03h-25.94c-4.36,0-7.03-2.81-7.03-7.53ZM170.59,35.2c9.81,0,15.31-4.27,15.31-11.79,0-7.08-4.74-11.07-13.13-11.07h-15.04v22.86h12.86ZM173.42,70.81c10.35,0,15.86-4.44,15.86-12.75s-5.67-12.58-16.46-12.58h-15.09v25.33h15.69Z"/>
        <path class="cls-1" d="M209.99,76.37c0-1.12.27-2.7.93-4.44l22.83-63.98c1.91-5.39,5.07-7.86,10.19-7.86s8.34,2.36,10.3,7.81l22.89,64.03c.65,1.85.93,3.15.93,4.44,0,3.93-2.94,6.68-7.03,6.68-3.81,0-5.94-1.8-7.19-6.12l-5.18-15.5h-29.37l-5.18,15.39c-1.31,4.38-3.38,6.23-7.03,6.23-4.3,0-7.08-2.58-7.08-6.68ZM255.22,49.97l-11.17-34.6h-.38l-11.06,34.6h22.61Z"/>
        <path class="cls-1" d="M296.74,75.53V13.3h-17.98c-3.81,0-6.43-2.36-6.43-6.12s2.56-6.12,6.43-6.12h49.97c3.87,0,6.43,2.36,6.43,6.12s-2.62,6.12-6.43,6.12h-17.98v62.23c0,4.77-2.62,7.53-7.03,7.53s-6.97-2.75-6.97-7.53Z"/>
        <path class="cls-1" d="M343.83,74.57V8.58c0-4.72,2.67-7.53,7.03-7.53h38.31c3.87,0,6.43,2.36,6.43,6.12s-2.56,6.12-6.43,6.12h-31.28v21.91h29.64c3.6,0,6.05,2.19,6.05,5.73s-2.4,5.79-6.05,5.79h-29.64v23.14h31.28c3.87,0,6.43,2.36,6.43,6.12s-2.56,6.12-6.43,6.12h-38.31c-4.36,0-7.03-2.81-7.03-7.53Z"/>
        <path class="cls-1" d="M406.93,74.57V8.58c0-4.72,2.67-7.53,7.03-7.53h38.31c3.87,0,6.43,2.36,6.43,6.12s-2.56,6.12-6.43,6.12h-31.28v21.91h29.64c3.6,0,6.05,2.19,6.05,5.73s-2.4,5.79-6.05,5.79h-29.64v23.14h31.28c3.87,0,6.43,2.36,6.43,6.12s-2.56,6.12-6.43,6.12h-38.31c-4.36,0-7.03-2.81-7.03-7.53Z"/>
      </g>
    </g>
  </g>
</svg>